<svg width="40" height="40" viewBox="0 0 40 40" fill="none" xmlns="http://www.w3.org/2000/svg">
<path fill-rule="evenodd" clip-rule="evenodd" d="M20 40C31.0457 40 40 31.0457 40 20C40 8.9543 31.0457 0 20 0C8.9543 0 0 8.9543 0 20C0 31.0457 8.9543 40 20 40ZM12.1289 20.7402C12.3502 20.9551 12.6139 21.0625 12.9199 21.0625H18.8769V27.0195C18.8769 27.3255 18.9844 27.5892 19.1992 27.8105C19.4206 28.0319 19.6842 28.1426 19.9902 28.1426C20.3027 28.1426 20.5664 28.0319 20.7812 27.8105C21.0026 27.5892 21.1133 27.3255 21.1133 27.0195V21.0625H27.0605C27.3665 21.0625 27.6302 20.9551 27.8515 20.7402C28.0729 20.5254 28.1836 20.2617 28.1836 19.9492C28.1836 19.6432 28.0729 19.3796 27.8515 19.1582C27.6302 18.9368 27.3665 18.8262 27.0605 18.8262H21.1133V12.8789C21.1133 12.5729 21.0026 12.3125 20.7812 12.0977C20.5664 11.8763 20.3027 11.7656 19.9902 11.7656C19.6842 11.7656 19.4206 11.8763 19.1992 12.0977C18.9844 12.3125 18.8769 12.5729 18.8769 12.8789V18.8262H12.9199C12.6139 18.8262 12.3502 18.9368 12.1289 19.1582C11.914 19.3796 11.8066 19.6432 11.8066 19.9492C11.8066 20.2617 11.914 20.5254 12.1289 20.7402Z" fill="white"/>
</svg>
