<svg width="22" height="19" viewBox="0 0 22 19" fill="none" xmlns="http://www.w3.org/2000/svg">
<path d="M8.10431 18.5996C6.66876 18.5996 5.88751 17.75 5.88751 16.373V12.125H2.03986C1.18048 12.125 0.526184 11.6074 0.526184 10.7969C0.526184 10.2988 0.741028 9.9668 1.18048 9.52734L9.92072 0.767578C10.3113 0.367188 10.741 0.152344 11.2 0.152344C11.659 0.152344 12.0789 0.367188 12.4793 0.767578L21.2195 9.52734C21.6395 9.95703 21.8738 10.2988 21.8738 10.7969C21.8738 11.6074 21.2195 12.125 20.3504 12.125H16.5125V16.373C16.5125 17.75 15.7313 18.5996 14.2859 18.5996H8.10431Z" fill="white"/>
</svg>
