<svg width="22" height="21" viewBox="0 0 22 21" fill="none" xmlns="http://www.w3.org/2000/svg">
<path d="M9.91162 20.8398C9.31592 20.8398 8.87646 20.4883 8.74951 19.9121L8.26123 17.8516C7.9292 17.7344 7.6167 17.6074 7.32373 17.4707L5.52686 18.584C5.03857 18.8867 4.4624 18.8379 4.06201 18.4375L2.81201 17.1777C2.40186 16.7773 2.34326 16.1816 2.66553 15.6934L3.76904 13.9062C3.63232 13.6133 3.50537 13.3008 3.40771 12.998L1.32764 12.5098C0.751465 12.3828 0.409668 11.9434 0.409668 11.3574V9.59961C0.409668 9.02344 0.751465 8.57422 1.32764 8.44727L3.38818 7.94922C3.50537 7.60742 3.63232 7.30469 3.74951 7.04102L2.646 5.21484C2.3335 4.7168 2.37256 4.16016 2.79248 3.75L4.06201 2.49023C4.48193 2.10938 4.98975 2.05078 5.48779 2.32422L7.31396 3.44727C7.60693 3.30078 7.9292 3.17383 8.26123 3.06641L8.74951 0.986328C8.87646 0.410156 9.31592 0.0585938 9.91162 0.0585938H11.6987C12.2847 0.0585938 12.7241 0.410156 12.8511 0.986328L13.3491 3.07617C13.6812 3.19336 13.9937 3.32031 14.2769 3.45703L16.1128 2.32422C16.6108 2.05078 17.1284 2.11914 17.5386 2.49023L18.8081 3.75C19.228 4.16016 19.2671 4.7168 18.9546 5.21484L17.8511 7.04102C17.9683 7.30469 18.105 7.60742 18.2124 7.94922L20.2729 8.44727C20.8491 8.57422 21.1909 9.02344 21.1909 9.59961V11.3574C21.1909 11.9434 20.8491 12.3828 20.2729 12.5098L18.1929 12.998C18.0952 13.3008 17.9683 13.6133 17.8315 13.9062L18.9351 15.6934C19.2573 16.1816 19.1987 16.7773 18.7983 17.1777L17.5386 18.4375C17.1382 18.8379 16.562 18.8867 16.0835 18.584L14.2769 17.4707C13.9839 17.6074 13.6714 17.7344 13.3394 17.8516L12.8511 19.9121C12.7241 20.4883 12.2847 20.8398 11.6987 20.8398H9.91162ZM10.8003 13.8672C12.6851 13.8672 14.2183 12.3242 14.2183 10.4395C14.2183 8.57422 12.6851 7.04102 10.8003 7.04102C8.92529 7.04102 7.39209 8.57422 7.39209 10.4395C7.39209 12.3242 8.92529 13.8672 10.8003 13.8672Z" fill="white"/>
</svg>
