<svg width="21" height="21" viewBox="0 0 21 21" fill="none" xmlns="http://www.w3.org/2000/svg">
<path d="M19.2973 3.62695L17.7934 2.11328L18.5551 1.37109C18.9164 1.00977 19.4731 0.960938 19.8051 1.29297L20.059 1.55664C20.4301 1.92773 20.4008 2.46484 20.0297 2.85547L19.2973 3.62695ZM7.73477 14.0176C7.51016 14.1055 7.25626 13.8516 7.35391 13.627L8.23282 11.6934L17.0805 2.83594L18.5844 4.33008L9.73672 13.1777L7.73477 14.0176ZM4.02383 20.5703C1.91446 20.5703 0.810944 19.4766 0.810944 17.3867V6.18555C0.810944 4.0957 1.91446 3.00195 4.02383 3.00195H14.3852L12.4418 4.95508H4.15079C3.25235 4.95508 2.76407 5.42383 2.76407 6.36133V17.2109C2.76407 18.1484 3.25235 18.6172 4.15079 18.6172H15.2738C15.9281 18.6172 16.4262 18.1484 16.4262 17.2109V9.01758L18.3793 7.07422V17.3867C18.3793 19.4766 17.2758 20.5703 15.4008 20.5703H4.02383Z" fill="#838DEB"/>
</svg>
