<svg width="22" height="22" viewBox="0 0 22 22" fill="none" xmlns="http://www.w3.org/2000/svg">
<path d="M3.42188 0.951172H16.7031C18.793 0.951172 19.8867 2.05469 19.8867 4.16406V14.3984H10.1895C8.77344 14.3984 8.08008 15.1504 8.08008 16.5664V19.3789C8.08008 20.6777 7.33789 21.4102 6.2832 21.4102C5.16992 21.4102 4.39844 20.6582 4.39844 19.3105V2.88477C4.39844 1.89844 4.14453 1.3418 3.42188 0.951172ZM0.814453 5.81445V3.53906C0.814453 2.92383 1.30273 2.48438 1.89844 2.48438C2.48438 2.48438 2.96289 2.92383 2.96289 3.53906V6.92773H1.95703C1.27344 6.92773 0.814453 6.48828 0.814453 5.81445ZM8.28516 6.13672C8.28516 6.48828 8.54883 6.77148 8.91992 6.77148H15.5508C15.9023 6.77148 16.1758 6.48828 16.1758 6.13672C16.1758 5.79492 15.9023 5.53125 15.5508 5.53125H8.91992C8.54883 5.53125 8.28516 5.79492 8.28516 6.13672ZM8.28516 9.48633C8.28516 9.82812 8.54883 10.1016 8.91992 10.1016H12.4355C12.7969 10.1016 13.0605 9.82812 13.0605 9.48633C13.0605 9.13477 12.7969 8.86133 12.4355 8.86133H8.91992C8.54883 8.86133 8.28516 9.13477 8.28516 9.48633ZM8.5293 21.9473C9.32031 21.1562 9.50586 20.1797 9.50586 18.998V16.9473C9.50586 16.2734 9.96484 15.834 10.6484 15.834H20.8438C21.5273 15.834 21.9863 16.2734 21.9863 16.9473V18.832C21.9863 20.834 20.6973 21.9473 18.7637 21.9473H8.5293Z" fill="white"/>
</svg>
